<?xml version="1.0" encoding="utf-8"?>
<!-- Generator: Adobe Illustrator 24.3.0, SVG Export Plug-In . SVG Version: 6.00 Build 0)  -->
<svg version="1.1" xmlns="http://www.w3.org/2000/svg" xmlns:xlink="http://www.w3.org/1999/xlink" x="0px" y="0px"
	 viewBox="0 0 32 32" style="enable-background:new 0 0 32 32;" xml:space="preserve">
<g id="レイヤー_2">
</g>
<g id="レイヤー_1">
	<g>
		<path d="M24.33,20.69c0.09,0.03,0.16,0.08,0.2,0.16c0.04,0.08,0.04,0.16,0.02,0.25c-0.79,2.11-2.18,3.11-4.16,3
			c-0.42,1.35-1.06,2.55-1.92,3.61c-0.9,1.08-1.87,1.93-2.93,2.55c-1.06,0.6-2.04,1.01-2.96,1.24c-0.91,0.2-1.62,0.3-2.15,0.31
			l-0.81,0.02c-2.24,0-3.91-0.48-5.01-1.45c-1.11-0.96-1.76-2-1.95-3.11c-0.37-2.66,0.78-4.61,3.45-5.86
			c1.16-0.43,2.48-0.51,3.95-0.25c1.47,0.26,2.98,0.64,4.52,1.12c1.56,0.49,3.03,0.85,4.4,1.08c0.1-0.52,0.16-1.05,0.18-1.59
			c0-0.07,0-0.14,0.01-0.21c0.01-0.24,0-0.48-0.01-0.71c-0.01-0.15-0.02-0.29-0.02-0.44c-0.02-0.14-0.03-0.29-0.05-0.43
			c-0.07-0.56-0.2-1.06-0.38-1.52c-0.04-0.08-0.08-0.15-0.12-0.23c-0.06-0.14-0.13-0.28-0.21-0.4c-0.06-0.1-0.12-0.19-0.18-0.29
			c-0.04-0.05-0.08-0.1-0.13-0.15c-0.03-0.04-0.06-0.07-0.08-0.1c-0.61-0.67-1.22-1.17-1.83-1.53c-0.59-0.37-1.35-0.77-2.29-1.21
			c-0.46-0.21-0.96-0.43-1.49-0.65c-0.33-0.13-0.68-0.27-1.03-0.41c-0.21-0.09-0.43-0.18-0.66-0.27c-1.23-0.46-2.43-1.18-3.58-2.17
			c-0.56-0.52-1-1.15-1.3-1.9C5.5,8.39,5.4,7.64,5.48,6.9c0.07-0.73,0.23-1.4,0.5-2.03C6.26,4.24,6.6,3.69,6.99,3.2
			c0.84-0.95,1.71-1.6,2.6-1.97c0.89-0.35,1.6-0.54,2.15-0.55c0.17-0.02,0.32-0.03,0.45-0.02c0.06,0,0.11,0,0.16-0.01h0.21
			c1.4,0,2.48,0.45,3.23,1.34c0.99,1.2,1.28,2.96,0.88,5.28c-0.02,0.08-0.05,0.15-0.11,0.2c-0.06,0.05-0.13,0.07-0.21,0.07
			c-0.02,0-0.03,0-0.05,0c-0.09-0.02-0.16-0.07-0.21-0.14c-0.05-0.07-0.07-0.15-0.06-0.24c0.36-2.12,0.11-3.7-0.74-4.76
			c-0.62-0.74-1.54-1.11-2.73-1.11l-0.19,0.02c-0.04,0.01-0.09,0.01-0.15,0.02c-0.11,0-0.24,0.02-0.39,0.05
			c-0.49,0.05-1.11,0.26-1.86,0.63C9.2,2.38,8.49,3,7.84,3.86C7.53,4.29,7.28,4.77,7.08,5.3C6.9,5.84,6.8,6.39,6.78,6.97
			C6.76,7.55,6.87,8.09,7.11,8.59c0.24,0.5,0.58,0.93,1.03,1.3c0.94,0.73,2,1.29,3.18,1.68c0.59,0.21,1.16,0.41,1.71,0.61
			c0.56,0.2,1.09,0.41,1.59,0.62c1.02,0.43,1.87,0.86,2.56,1.28c0.72,0.4,1.48,1.07,2.29,2c0.03,0.04,0.05,0.07,0.08,0.12
			c0.07,0.08,0.13,0.17,0.19,0.25c0.08,0.14,0.16,0.28,0.25,0.42c0.12,0.2,0.23,0.41,0.31,0.64c0.04,0.09,0.07,0.18,0.12,0.27
			c0.04,0.1,0.07,0.21,0.1,0.32c0.02,0.05,0.03,0.1,0.05,0.16c0.01,0.05,0.02,0.1,0.04,0.15c0.04,0.11,0.07,0.23,0.08,0.35
			c0.01,0.07,0.02,0.13,0.04,0.19c0.05,0.28,0.09,0.55,0.11,0.83c0.01,0.11,0.01,0.23,0.02,0.35c0.01,0.06,0.01,0.12,0.01,0.18
			c0,0.17,0,0.34,0,0.51c0,0.28-0.01,0.55-0.04,0.82c-0.01,0.07-0.01,0.14-0.02,0.21c-0.04,0.52-0.12,1.05-0.25,1.58
			c1.62,0.02,2.74-0.83,3.36-2.54c0.03-0.09,0.08-0.15,0.16-0.19C24.16,20.67,24.24,20.66,24.33,20.69z M17.43,26.91
			c0.63-0.9,1.1-1.87,1.4-2.93c-1.42-0.25-2.9-0.62-4.43-1.1c-1.49-0.47-2.94-0.83-4.34-1.09c-1.41-0.26-2.64-0.19-3.7,0.2
			c-1.28,0.57-2.16,1.34-2.63,2.3s-0.61,1.91-0.42,2.83c0.17,1.02,0.76,1.94,1.76,2.78c1,0.83,2.52,1.25,4.56,1.25
			c0.01,0,0.11-0.01,0.31-0.03c0.12-0.01,0.26-0.02,0.44-0.04c0.49-0.04,1.15-0.18,1.96-0.43c0.82-0.26,1.69-0.7,2.61-1.3
			C15.88,28.73,16.7,27.92,17.43,26.91z"/>
		<path d="M29.54,20.79c0.03,0.02,0.05,0.04,0.07,0.06c0.02,0.03,0.02,0.05,0.02,0.07c-0.34,1.05-0.68,1.91-1.02,2.59
			c-0.34,0.68-0.75,1.27-1.25,1.78c-0.5,0.51-1.08,0.78-1.73,0.81c-0.29-0.01-0.54-0.07-0.75-0.19c-0.58-0.39-0.91-1.1-1.01-2.14
			s-0.05-2.16,0.12-3.37c0.01-0.05,0.01-0.09,0.02-0.14c0.07-0.46,0.11-0.74,0.13-0.86l0.01-0.04v-0.02
			c0.01-0.05,0.02-0.1,0.02-0.15c0.01-0.01,0.01-0.01,0.01-0.02c0.04-0.18,0.1-0.4,0.21-0.67c0.1-0.27,0.24-0.49,0.41-0.68
			c0.14-0.14,0.32-0.22,0.52-0.23c0.26,0.01,0.44,0.11,0.53,0.31c0.09,0.2,0.13,0.43,0.12,0.71c-0.01,0.28-0.04,0.54-0.08,0.78
			c-0.01,0.06-0.01,0.11-0.02,0.17l-0.01,0.02c-0.08,0.47-0.15,0.93-0.21,1.38v0.01c-0.14,0.92-0.21,1.75-0.21,2.48
			c-0.01,0.31,0.01,0.59,0.05,0.84c0.08,0.6,0.3,0.92,0.66,0.94c0.37-0.02,0.73-0.25,1.07-0.7c0.34-0.45,0.64-0.96,0.91-1.54
			c0.27-0.58,0.56-1.33,0.87-2.24c0.01-0.03,0.05-0.05,0.12-0.06c0.07-0.01,0.14,0,0.23,0.02C29.42,20.72,29.49,20.75,29.54,20.79z
			 M26.29,16.2c-0.1,0.05-0.25,0.06-0.45,0.03c-0.2-0.03-0.4-0.08-0.58-0.16c-0.18-0.08-0.29-0.16-0.33-0.25
			c-0.03-0.09-0.04-0.28-0.03-0.56c0-0.28,0.02-0.59,0.05-0.92c0.03-0.33,0.09-0.61,0.16-0.85c0.02-0.06,0.05-0.11,0.1-0.15
			c0.05-0.04,0.11-0.05,0.17-0.05c0.11,0.01,0.24,0,0.39-0.01c0.25-0.02,0.48-0.01,0.69,0.02c0.21,0.03,0.34,0.11,0.37,0.25
			c0.01,0.14-0.01,0.35-0.05,0.63c-0.05,0.28-0.1,0.57-0.17,0.87c-0.07,0.3-0.13,0.56-0.2,0.78C26.35,16.06,26.31,16.18,26.29,16.2z
			"/>
	</g>
</g>
</svg>
